<svg width="80px" height="80px" viewBox="0 0 80 80" xmlns="http://www.w3.org/2000/svg">
  <style>
		.fr-artwork-decorative {
			fill: #ECECFF;
		}
		.fr-artwork-minor {
			fill: #E1000F;
		}
		.fr-artwork-major {
			fill: #000091;
		}
	</style>
	<symbol id="artwork-major">
    <path d="M73.2 33.0664H67.4H67.3333H67.2667H11.8667H11.8H11.7333H5.93334C5.4 33.0664 5 33.4664 5 33.9997V73.3331C5 73.8664 5.4 74.2664 5.93334 74.2664H11.7333C12.2667 74.2664 12.6667 73.8664 12.6667 73.3331V62.9331H66.4667V73.3331C66.4667 73.8664 66.8667 74.2664 67.4 74.2664H73.2C73.7333 74.2664 74.1333 73.8664 74.1333 73.3331V33.9997C74.1333 33.4664 73.7333 33.0664 73.2 33.0664ZM12.6667 39.0664H17.6V57.0664H12.6667V39.0664ZM10.8 72.3997H6.86667V34.9331H10.8V72.3997ZM66.4667 61.0664H12.6667V58.9331H66.4667V61.0664ZM19.4667 57.0664V39.0664H24.6V57.0664H19.4667ZM26.4667 57.0664V39.0664H31.6V57.0664H26.4667ZM33.4667 57.0664V39.0664H38.6667V57.0664H33.4667ZM40.5333 57.0664V39.0664H45.6667V57.0664H40.5333ZM47.5333 57.0664V39.0664H52.6667V57.0664H47.5333ZM54.5333 57.0664V39.0664H59.6667V57.0664H54.5333ZM66.4667 57.0664H61.5333V39.0664H66.4667V57.0664ZM12.6667 37.1997V34.9331H66.4667V37.1997H12.6667ZM72.2667 72.3997H68.3333V34.9331H72.2667V72.3997Z"/>
  </symbol>
  <symbol id="artwork-minor">
    <path d="M69.1332 6.86666C69.6665 6.86666 70.0665 6.46666 70.0665 5.93333C70.0665 5.4 69.6665 5 69.1332 5H39.7998C39.2665 5 38.8665 5.4 38.8665 5.93333C38.8665 6.46666 39.2665 6.86666 39.7998 6.86666H42.8665V12.4667L41.6665 14.9333L38.6665 15.4C38.3332 15.4667 37.9998 15.7333 37.9332 16.0667C37.7998 16.4 37.9332 16.8 38.1998 17L40.3998 19.1333L39.8665 22.0667C39.7998 22.4 39.9332 22.8 40.2665 23C40.3998 23.1333 40.5998 23.2 40.7998 23.2C40.9332 23.2 41.0665 23.1333 41.2665 23.0667L43.9332 21.6667L46.5998 23.0667C46.9332 23.2 47.3332 23.2 47.5998 23C47.8665 22.8 47.9998 22.4 47.9998 22.0667L47.4665 19.1333L49.5998 17C49.8665 16.7333 49.9332 16.4 49.7998 16.0667C49.6665 15.7333 49.3998 15.4667 49.0665 15.4L46.0665 14.9333L44.8665 12.4667V6.86666H53.6665V17.2667C53.6665 17.4 53.6665 17.5333 53.7332 17.6667C51.7332 18.7333 50.3998 20.8 50.3998 23.2C50.3998 26.6667 53.1998 29.4667 56.6665 29.4667C57.0665 29.4667 57.4665 29.4 57.8665 29.3333C58.2665 29.2667 58.5332 29 58.5998 28.6C58.6665 28.2 58.5332 27.8667 58.1998 27.6C56.7998 26.6 55.9998 25 55.9998 23.2C55.9998 21.4667 56.7998 19.8 58.1998 18.7333C58.4665 18.5333 58.6665 18.1333 58.5332 17.8C58.4665 17.4667 58.1332 17.1333 57.7998 17.0667C57.4665 17 57.0665 16.9333 56.5998 16.9333C56.1998 16.9333 55.8665 17 55.4665 17.0667V6.86666H63.7998V10.4C61.7332 10.8667 60.1332 12.6667 60.1332 14.9333C60.1332 17.4667 62.1998 19.5333 64.7332 19.5333C67.2665 19.5333 69.3332 17.4667 69.3332 14.9333C69.3332 12.7333 67.7332 10.8667 65.6665 10.4V6.86666H69.1332ZM46.7998 17L45.6665 18.1333C45.4665 18.3333 45.3332 18.6667 45.3998 18.9333L45.6665 20.4667L44.1998 19.7333C44.0665 19.6667 43.9332 19.6 43.7998 19.6C43.6665 19.6 43.4665 19.6667 43.3332 19.7333L41.9998 20.4667L42.2665 18.9333C42.3332 18.6 42.1998 18.3333 41.9998 18.0667L40.7998 16.9333L42.3998 16.6667C42.7332 16.6 42.9998 16.4 43.1332 16.1333L43.7998 14.7333L44.4665 16.1333C44.5998 16.4 44.8665 16.6 45.1998 16.6667L46.7998 17ZM55.2665 27.4C53.4665 26.8667 52.1332 25.2 52.1332 23.2C52.1332 21.2 53.4665 19.5333 55.2665 19C54.3998 20.2 53.9998 21.6667 53.9998 23.2C53.9998 24.7333 54.4665 26.2 55.2665 27.4ZM67.3998 14.9333C67.3998 16.4667 66.1998 17.6667 64.6665 17.6667C63.1332 17.6667 61.9332 16.4667 61.9332 14.9333C61.9332 13.4 63.1332 12.2 64.6665 12.2C66.1998 12.2 67.3998 13.4 67.3998 14.9333Z"/>
  </symbol>
  <symbol id="artwork-decorative">
  </symbol>
  <use class="fr-artwork-decorative" href="#artwork-decorative"/>
  <use class="fr-artwork-minor" href="#artwork-minor"/>
  <use class="fr-artwork-major" href="#artwork-major"/>
</svg>
